<svg width="23" height="23" viewBox="0 0 23 23" fill="none" xmlns="http://www.w3.org/2000/svg">
<path d="M0 18.209V23H4.64584L18.348 8.8697L13.7021 4.07868L0 18.209ZM21.9407 5.16464C22.0556 5.04645 22.1467 4.90605 22.2089 4.7515C22.271 4.59694 22.303 4.43126 22.303 4.26393C22.303 4.09661 22.271 3.93092 22.2089 3.77637C22.1467 3.62181 22.0556 3.48142 21.9407 3.36322L19.0417 0.373628C18.9271 0.255189 18.791 0.161225 18.6411 0.0971125C18.4912 0.0330005 18.3306 0 18.1683 0C18.0061 0 17.8454 0.0330005 17.6955 0.0971125C17.5457 0.161225 17.4095 0.255189 17.2949 0.373628L15.0277 2.71164L19.6736 7.50266L21.9407 5.16464Z" fill="#434343"/>
</svg>
