<svg width="22" height="33" viewBox="0 0 22 33" fill="none" xmlns="http://www.w3.org/2000/svg">
<path d="M15.9394 10.6883C17.3113 10.6883 18.627 10.1263 19.5971 9.12588C20.5671 8.12549 21.1121 6.76867 21.1121 5.35391C21.1121 3.93914 20.5671 2.58232 19.5971 1.58193C18.627 0.581544 17.3113 0.0195313 15.9394 0.0195313L5.59394 0.0195312C4.22285 0.0195313 2.90792 0.581215 1.93841 1.58102C0.968907 2.58082 0.424244 3.93685 0.424244 5.35078C0.424244 6.76472 0.968907 8.12074 1.93841 9.12055C2.90792 10.1203 4.22285 10.682 5.59394 10.682C4.22205 10.682 2.90634 11.244 1.93627 12.2444C0.966196 13.2448 0.421214 14.6016 0.421214 16.0164C0.421214 17.4312 0.966196 18.788 1.93627 19.7884C2.90634 20.7888 4.22205 21.3508 5.59394 21.3508C4.57087 21.3502 3.5706 21.6624 2.71962 22.2481C1.86863 22.8337 1.20516 23.6664 0.813095 24.6409C0.42103 25.6154 0.317984 26.6879 0.516987 27.7228C0.71599 28.7577 1.2081 29.7085 1.9311 30.4549C2.65409 31.2014 3.5755 31.71 4.57879 31.9164C5.58208 32.1229 6.6222 32.0178 7.56763 31.6147C8.51305 31.2115 9.3213 30.5283 9.89019 29.6514C10.4591 28.7745 10.763 27.7433 10.7636 26.6883V10.6883H15.9394ZM15.9394 10.6883C14.9169 10.6883 13.9174 11.001 13.0673 11.5868C12.2171 12.1726 11.5545 13.0052 11.1632 13.9794C10.7719 14.9535 10.6696 16.0254 10.869 17.0596C11.0685 18.0938 11.5609 19.0437 12.2839 19.7893C13.0069 20.5349 13.928 21.0426 14.9308 21.2483C15.9337 21.4541 16.9731 21.3485 17.9177 20.945C18.8624 20.5415 19.6698 19.8581 20.2378 18.9814C20.8059 18.1047 21.1091 17.074 21.1091 16.0195C21.1089 14.6056 20.5642 13.2497 19.5947 12.25C18.6253 11.2502 17.3104 10.6884 15.9394 10.6883Z" fill="#434343"/>
</svg>
