<svg width="35" height="35" viewBox="0 0 35 35" fill="none" xmlns="http://www.w3.org/2000/svg">
<path d="M17.7727 1.46274e-06C8.4053 -0.00390479 0.81818 7.81641 0.81818 17.4688C0.81818 25.1016 5.56439 31.5898 12.1742 33.9727C13.0644 34.2031 12.928 33.5508 12.928 33.1055V30.0781C7.78788 30.6992 7.57954 27.1914 7.23485 26.6055C6.53788 25.3789 4.89015 25.0664 5.38257 24.4805C6.55303 23.8594 7.74621 24.6367 9.12879 26.7422C10.1288 28.2695 12.0795 28.0117 13.0682 27.7578C13.2841 26.8398 13.7462 26.0195 14.3826 25.3828C9.05682 24.3984 6.83712 21.0469 6.83712 17.0625C6.83712 15.1289 7.45455 13.3516 8.66667 11.918C7.89394 9.55469 8.73864 7.53125 8.85227 7.23047C11.053 7.02734 13.3409 8.85547 13.5189 9C14.7689 8.65235 16.197 8.46875 17.7955 8.46875C19.4015 8.46875 20.8333 8.66016 22.0947 9.01172C22.5227 8.67578 24.6439 7.10547 26.6894 7.29688C26.7992 7.59766 27.625 9.57422 26.8977 11.9063C28.125 13.3438 28.75 15.1367 28.75 17.0742C28.75 21.0664 26.5152 24.4219 21.1742 25.3906C21.6317 25.8546 21.9949 26.4079 22.2427 27.0182C22.4905 27.6285 22.6179 28.2836 22.6174 28.9453V33.3398C22.6477 33.6914 22.6174 34.0391 23.1856 34.0391C29.8939 31.707 34.7235 25.1719 34.7235 17.4727C34.7235 7.81641 27.1326 1.46274e-06 17.7727 1.46274e-06Z" fill="#434343"/>
</svg>
