<svg width="23" height="28" viewBox="0 0 23 28" fill="none" xmlns="http://www.w3.org/2000/svg">
<path d="M11.1391 28C12.6707 28 13.9239 26.7077 13.9239 25.1282H8.35432C8.35432 25.8899 8.64772 26.6203 9.16997 27.1589C9.69221 27.6974 10.4005 28 11.1391 28ZM19.4934 19.3846V12.2051C19.4934 7.79693 17.2099 4.10667 13.2277 3.13026V2.15385C13.2277 0.962053 12.2948 1.90735e-06 11.1391 1.90735e-06C9.98342 1.90735e-06 9.05052 0.962053 9.05052 2.15385V3.13026C5.05437 4.10667 2.78477 7.78257 2.78477 12.2051V19.3846L0 22.2564V23.6923H22.2782V22.2564L19.4934 19.3846Z" fill="#434343"/>
</svg>
