<svg width="26" height="29" viewBox="0 0 26 29" fill="none" xmlns="http://www.w3.org/2000/svg">
<path d="M12.6875 14.5C16.692 14.5 19.9375 11.2545 19.9375 7.25C19.9375 3.24551 16.692 0 12.6875 0C8.68301 0 5.4375 3.24551 5.4375 7.25C5.4375 11.2545 8.68301 14.5 12.6875 14.5ZM17.7625 16.3125H16.8166C15.5592 16.8902 14.1602 17.2188 12.6875 17.2188C11.2148 17.2188 9.82148 16.8902 8.5584 16.3125H7.6125C3.40977 16.3125 0 19.7223 0 23.925V26.2812C0 27.7822 1.21777 29 2.71875 29H22.6562C24.1572 29 25.375 27.7822 25.375 26.2812V23.925C25.375 19.7223 21.9652 16.3125 17.7625 16.3125Z" fill="#434343"/>
</svg>
