<svg width="30" height="30" viewBox="0 0 30 30" fill="none" xmlns="http://www.w3.org/2000/svg">
<path d="M25.7635 16.4625C25.8196 15.9938 25.857 15.5063 25.857 15C25.857 14.4938 25.8196 14.0063 25.7448 13.5375L28.9053 11.0625C29.0409 10.9486 29.1334 10.7916 29.1674 10.6176C29.2015 10.4435 29.1749 10.2631 29.0923 10.1063L26.1001 4.91254C25.9131 4.57504 25.5204 4.46254 25.1838 4.57504L21.4623 6.07504C20.6895 5.47694 19.8404 4.98508 18.9376 4.61254L18.3766 0.637547C18.3496 0.458707 18.259 0.295694 18.1215 0.178545C17.984 0.0613955 17.809 -0.00199681 17.6286 4.79658e-05H11.6443C11.4659 -0.00176683 11.2931 0.0621565 11.1586 0.179679C11.0242 0.297201 10.9374 0.460138 10.9149 0.637547L10.3539 4.61254C9.45263 4.98818 8.60395 5.4798 7.82925 6.07504L4.10775 4.57504C3.94016 4.51027 3.75481 4.50879 3.58622 4.57088C3.41763 4.63297 3.27731 4.7544 3.1914 4.91254L0.199234 10.1063C0.106697 10.2606 0.0745919 10.4438 0.109144 10.6205C0.143696 10.7972 0.242443 10.9547 0.386244 11.0625L3.54671 13.5375C3.47191 14.0063 3.41581 14.5125 3.41581 15C3.41581 15.4875 3.45321 15.9938 3.52801 16.4625L0.367543 18.9375C0.231954 19.0514 0.139421 19.2085 0.105388 19.3825C0.0713537 19.5565 0.0978778 19.737 0.180533 19.8938L3.17269 25.0875C3.3597 25.425 3.75243 25.5375 4.08904 25.425L7.81055 23.925C8.58334 24.5231 9.4324 25.015 10.3352 25.3875L10.8962 29.3625C10.971 29.7375 11.2702 30 11.6443 30H17.6286C18.0026 30 18.3205 29.7375 18.3579 29.3625L18.9189 25.3875C19.8202 25.0119 20.6689 24.5202 21.4436 23.925L25.1651 25.425C25.5017 25.5563 25.8944 25.425 26.0814 25.0875L29.0736 19.8938C29.1661 19.7395 29.1982 19.5562 29.1637 19.3796C29.1291 19.2029 29.0304 19.0454 28.8866 18.9375L25.7635 16.4625ZM14.6364 20.625C11.5507 20.625 9.02611 18.0938 9.02611 15C9.02611 11.9063 11.5507 9.37503 14.6364 9.37503C17.7221 9.37503 20.2467 11.9063 20.2467 15C20.2467 18.0938 17.7221 20.625 14.6364 20.625Z" fill="#434343"/>
</svg>
