<svg width="27" height="27" viewBox="0 0 27 27" fill="none" xmlns="http://www.w3.org/2000/svg">
<path d="M10.1146 0.394531C8.70928 0.394531 7.57245 1.57031 7.57245 3.01953C7.57245 3.71338 7.84091 4.3833 8.31487 4.87549C8.79214 5.36768 9.43845 5.64453 10.1146 5.64453H12.6567V3.01953C12.6567 1.57373 11.5199 0.397949 10.1146 0.394531ZM10.1146 7.39453H3.33003C1.92472 7.39453 0.787888 8.57031 0.787888 10.0195C0.787888 11.4688 1.92804 12.6445 3.33003 12.6445H10.1113C11.5166 12.6445 12.6534 11.4688 12.6534 10.0195C12.6567 8.57031 11.5166 7.39453 10.1146 7.39453ZM16.8958 12.6445C18.3011 12.6445 19.4413 11.4688 19.438 10.0195V3.01953C19.438 1.57031 18.3011 0.394531 16.8958 0.394531C15.4905 0.394531 14.3537 1.57031 14.3537 3.01953V10.0195C14.3537 11.4722 15.4905 12.6445 16.8958 12.6445ZM26.2225 10.0195C26.2225 8.57031 25.0824 7.39453 23.6804 7.39453C22.2784 7.39453 21.1383 8.57031 21.1383 10.0195V12.6445H23.6804C25.0824 12.6445 26.2225 11.4688 26.2225 10.0195ZM23.6771 14.3945H16.8958C15.4905 14.3945 14.3537 15.5703 14.3537 17.0195C14.3537 17.7134 14.6222 18.3833 15.0961 18.8755C15.5734 19.3677 16.2197 19.6445 16.8958 19.6445H23.6771C25.0824 19.6445 26.2192 18.4688 26.2192 17.0195C26.2225 15.5703 25.0824 14.3979 23.6771 14.3945ZM16.8958 21.3945H14.3537V24.0195C14.3537 25.4688 15.4938 26.6445 16.8958 26.6445C18.3011 26.6445 19.4413 25.4688 19.438 24.0195C19.4413 22.5703 18.3011 21.3979 16.8958 21.3945ZM10.1146 14.3945C8.70928 14.3945 7.57245 15.5703 7.57245 17.0195V24.0195C7.57245 25.4688 8.7126 26.6445 10.1146 26.6445C11.5199 26.6445 12.66 25.4688 12.6567 24.0195V17.0195C12.6567 16.3257 12.3883 15.6558 11.9143 15.1636C11.437 14.6714 10.7874 14.3945 10.1146 14.3945ZM0.787888 17.0195C0.787888 17.7134 1.05635 18.3833 1.53031 18.8755C2.00758 19.3677 2.65389 19.6445 3.33003 19.6445C4.73533 19.6445 5.87548 18.4688 5.87217 17.0195V14.3945H3.33003C1.92804 14.3945 0.787888 15.5703 0.787888 17.0195Z" fill="#434343"/>
</svg>
