<svg width="25" height="26" viewBox="0 0 25 26" fill="none" xmlns="http://www.w3.org/2000/svg">
<path d="M17.4364 15.5195C17.5334 14.6945 17.6061 13.8695 17.6061 13.0195C17.6061 12.1695 17.5334 11.3445 17.4364 10.5195H21.5333C21.7273 11.3195 21.8485 12.157 21.8485 13.0195C21.8485 13.882 21.7273 14.7195 21.5333 15.5195H17.4364ZM15.2909 22.4695C16.0182 21.082 16.5758 19.582 16.9637 18.0195H20.5394C19.3651 20.1049 17.502 21.6845 15.2909 22.4695ZM14.9879 15.5195H9.31518C9.19397 14.6945 9.12124 13.8695 9.12124 13.0195C9.12124 12.1695 9.19397 11.332 9.31518 10.5195H14.9879C15.097 11.332 15.1818 12.1695 15.1818 13.0195C15.1818 13.8695 15.097 14.6945 14.9879 15.5195ZM12.1515 22.9695C11.1455 21.4695 10.3334 19.807 9.8364 18.0195H14.4667C13.9697 19.807 13.1576 21.4695 12.1515 22.9695ZM7.30307 8.01953H3.76368C4.92592 5.92855 6.78767 4.34639 9.00003 3.56953C8.27276 4.95703 7.72731 6.45703 7.30307 8.01953ZM3.76368 18.0195H7.30307C7.72731 19.582 8.27276 21.082 9.00003 22.4695C6.79231 21.6841 4.93319 20.1042 3.76368 18.0195ZM2.76974 15.5195C2.5758 14.7195 2.45459 13.882 2.45459 13.0195C2.45459 12.157 2.5758 11.3195 2.76974 10.5195H6.8667C6.76973 11.3445 6.69701 12.1695 6.69701 13.0195C6.69701 13.8695 6.76973 14.6945 6.8667 15.5195H2.76974ZM12.1515 3.05703C13.1576 4.55703 13.9697 6.23203 14.4667 8.01953H9.8364C10.3334 6.23203 11.1455 4.55703 12.1515 3.05703ZM20.5394 8.01953H16.9637C16.5843 6.47135 16.0225 4.9769 15.2909 3.56953C17.5212 4.35703 19.3758 5.94453 20.5394 8.01953ZM12.1515 0.519531C5.44852 0.519531 0.0303497 6.14453 0.0303497 13.0195C0.0303497 16.3347 1.3074 19.5142 3.58056 21.8584C4.70612 23.0191 6.04235 23.9398 7.51296 24.568C8.98357 25.1962 10.5598 25.5195 12.1515 25.5195C15.3663 25.5195 18.4494 24.2026 20.7225 21.8584C22.9957 19.5142 24.2727 16.3347 24.2727 13.0195C24.2727 11.378 23.9592 9.75256 23.3501 8.23599C22.7409 6.71942 21.8481 5.34143 20.7225 4.1807C19.597 3.01996 18.2607 2.09922 16.7901 1.47104C15.3195 0.842853 13.7433 0.519531 12.1515 0.519531Z" fill="#434343"/>
</svg>
