<svg width="31" height="32" viewBox="0 0 31 32" fill="none" xmlns="http://www.w3.org/2000/svg">
<path d="M24.4497 15.9192C24.4497 16.797 24.3775 17.5066 23.5451 17.5066H16.9239V24.4896C16.9239 25.3659 16.2511 25.4437 15.4188 25.4437C14.5864 25.4437 13.9136 25.3659 13.9136 24.4896V17.5066H7.29242C6.46157 17.5066 6.38782 16.797 6.38782 15.9192C6.38782 15.0413 6.46157 14.3318 7.29242 14.3318H13.9136V7.34873C13.9136 6.47089 14.5864 6.3947 15.4188 6.3947C16.2511 6.3947 16.9239 6.47089 16.9239 7.34873V14.3318H23.5451C24.3775 14.3318 24.4497 15.0413 24.4497 15.9192Z" fill="#ececec"/>
</svg>
