<svg width="19" height="20" viewBox="0 0 19 20" fill="none" xmlns="http://www.w3.org/2000/svg">
<path d="M18.0619 9.52448C18.0619 10.4023 17.9897 11.1119 17.1573 11.1119H10.5361V18.0949C10.5361 18.9712 9.86332 19.049 9.03096 19.049C8.19861 19.049 7.5258 18.9712 7.5258 18.0949V11.1119H0.904601C0.0737526 11.1119 0 10.4023 0 9.52448C0 8.64664 0.0737526 7.93707 0.904601 7.93707H7.5258V0.954035C7.5258 0.0761956 8.19861 0 9.03096 0C9.86332 0 10.5361 0.0761956 10.5361 0.954035V7.93707H17.1573C17.9897 7.93707 18.0619 8.64664 18.0619 9.52448Z" fill="#434343"/>
</svg>
