<svg width="23" height="22" viewBox="0 0 23 22" fill="none" xmlns="http://www.w3.org/2000/svg">
<path d="M11.5445 1.83334C6.40069 1.83334 2.23531 5.94001 2.23531 11C2.23531 16.06 6.40069 20.1667 11.5445 20.1667C16.6977 20.1667 20.8724 16.06 20.8724 11C20.8724 5.94001 16.6977 1.83334 11.5445 1.83334ZM11.5538 18.3333C7.43504 18.3333 4.09901 15.0517 4.09901 11C4.09901 6.94834 7.43504 3.66668 11.5538 3.66668C15.6726 3.66668 19.0087 6.94834 19.0087 11C19.0087 15.0517 15.6726 18.3333 11.5538 18.3333Z" fill="#434343"/>
<path d="M12.0198 6.41666H10.622V11.9167L15.5142 14.8042L16.2131 13.6767L12.0198 11.2292V6.41666Z" fill="#434343"/>
</svg>
