<svg width="26" height="26" viewBox="0 0 26 26" fill="none" xmlns="http://www.w3.org/2000/svg">
<path d="M12.9315 0C5.85922 0 0.12912 5.63672 0.12912 12.5938C0.12912 19.5508 5.85922 25.1875 12.9315 25.1875C20.0038 25.1875 25.7339 19.5508 25.7339 12.5938C25.7339 5.63672 20.0038 0 12.9315 0ZM12.9315 4.875C15.4404 4.875 17.4743 6.87578 17.4743 9.34375C17.4743 11.8117 15.4404 13.8125 12.9315 13.8125C10.4226 13.8125 8.38872 11.8117 8.38872 9.34375C8.38872 6.87578 10.4226 4.875 12.9315 4.875ZM12.9315 22.3438C9.90126 22.3438 7.18592 20.993 5.3688 18.8805C6.33931 17.0828 8.23902 15.8438 10.4536 15.8438C10.5775 15.8438 10.7014 15.8641 10.8201 15.8996C11.4912 16.1129 12.1933 16.25 12.9315 16.25C13.6697 16.25 14.3769 16.1129 15.0429 15.8996C15.1616 15.8641 15.2855 15.8438 15.4094 15.8438C17.624 15.8438 19.5237 17.0828 20.4942 18.8805C18.6771 20.993 15.9617 22.3438 12.9315 22.3438Z" fill="#434343"/>
</svg>
